<svg width="336" height="121" viewBox="0 0 336 121" fill="none" xmlns="http://www.w3.org/2000/svg">
<path d="M134.784 37V14.932H126.144V11.8H146.988V14.932H138.348V37H134.784ZM150.909 37V11.8H154.509V37H150.909ZM167.057 37V14.932H158.417V11.8H179.261V14.932H170.621V37H167.057ZM183.182 37V11.8H186.782V33.868H200.426V37H183.182ZM208.157 33.868H222.845V37H204.557V11.8H222.341V14.932H208.157V22.672H220.793V25.732H208.157V33.868Z" fill="white"/>
<path d="M20.032 101.768C12.928 101.768 5.76 99.656 1.792 96.584L5.312 88.776C9.088 91.528 14.72 93.448 20.096 93.448C26.24 93.448 28.736 91.4 28.736 88.648C28.736 80.264 2.688 86.024 2.688 69.384C2.688 61.768 8.832 55.432 21.568 55.432C27.2 55.432 32.96 56.776 37.12 59.4L33.92 67.272C29.76 64.904 25.472 63.752 21.504 63.752C15.36 63.752 12.992 66.056 12.992 68.872C12.992 77.128 39.04 71.432 39.04 87.88C39.04 95.368 32.832 101.768 20.032 101.768ZM65.5165 56.2C77.4845 56.2 84.9725 62.408 84.9725 72.456C84.9725 82.44 77.4845 88.648 65.5165 88.648H56.4925V101H46.1245V56.2H65.5165ZM64.9405 80.2C71.2765 80.2 74.4765 77.32 74.4765 72.456C74.4765 67.528 71.2765 64.648 64.9405 64.648H56.4925V80.2H64.9405ZM114.696 101.768C100.552 101.768 90.1835 91.912 90.1835 78.6C90.1835 65.288 100.552 55.432 114.696 55.432C128.776 55.432 139.208 65.224 139.208 78.6C139.208 91.976 128.776 101.768 114.696 101.768ZM114.696 92.936C122.696 92.936 128.712 87.112 128.712 78.6C128.712 70.088 122.696 64.264 114.696 64.264C106.696 64.264 100.68 70.088 100.68 78.6C100.68 87.112 106.696 92.936 114.696 92.936ZM177.847 56.2H188.088V101H179.576L157.24 73.8V101H147V56.2H155.576L177.847 83.4V56.2ZM213.407 101.768C206.303 101.768 199.135 99.656 195.167 96.584L198.687 88.776C202.463 91.528 208.095 93.448 213.471 93.448C219.615 93.448 222.111 91.4 222.111 88.648C222.111 80.264 196.063 86.024 196.063 69.384C196.063 61.768 202.207 55.432 214.943 55.432C220.575 55.432 226.335 56.776 230.495 59.4L227.295 67.272C223.135 64.904 218.847 63.752 214.879 63.752C208.735 63.752 206.367 66.056 206.367 68.872C206.367 77.128 232.415 71.432 232.415 87.88C232.415 95.368 226.207 101.768 213.407 101.768ZM261.196 101.768C247.052 101.768 236.684 91.912 236.684 78.6C236.684 65.288 247.052 55.432 261.196 55.432C275.276 55.432 285.708 65.224 285.708 78.6C285.708 91.976 275.276 101.768 261.196 101.768ZM261.196 92.936C269.196 92.936 275.212 87.112 275.212 78.6C275.212 70.088 269.196 64.264 261.196 64.264C253.196 64.264 247.18 70.088 247.18 78.6C247.18 87.112 253.196 92.936 261.196 92.936ZM333.18 101H322.044L313.404 88.52H312.892H303.868V101H293.5V56.2H312.892C324.86 56.2 332.348 62.408 332.348 72.456C332.348 79.176 328.956 84.104 323.132 86.6L333.18 101ZM321.852 72.456C321.852 67.528 318.652 64.648 312.316 64.648H303.868V80.264H312.316C318.652 80.264 321.852 77.32 321.852 72.456Z" fill="white"/>
</svg>
